<svg width="30" height="30" viewBox="0 0 30 30" fill="none" xmlns="http://www.w3.org/2000/svg">
<g id="monochrome_led" clip-path="url(#clip0_6_8)">
<rect id="Rectangle 45" x="13" y="7" width="1" height="24" fill="#D9D9D9"/>
<rect id="Rectangle 46" x="20" y="7" width="1" height="24" fill="#D9D9D9"/>
<rect id="Rectangle 47" x="20" y="18" width="2" height="4" fill="#D9D9D9"/>
<rect id="Rectangle 48" x="13" y="7" width="7" height="4" fill="#D9D9D9"/>
<path id="Rectangle 52" d="M11 4.61161C11 3.75264 11.3682 2.93488 12.0113 2.36547L12.2981 2.11154C14.3627 0.283631 17.4073 0.0982499 19.6784 1.66218L20.7015 2.36667C21.5144 2.9265 22 3.85042 22 4.8375V13H11V4.61161Z" fill="#940101" fill-opacity="0.79"/>
<g id="on">
<path id="Rectangle 50" d="M13.75 3.24026C13.75 2.77306 13.8967 2.31766 14.1694 1.93829V1.93829C15.8171 -0.354162 19.1529 -0.559198 21.0689 1.51421L21.3609 1.83018C21.7718 2.27481 22 2.85797 22 3.46337V14H13.75V3.24026Z" fill="#EE1616" fill-opacity="0.99"/>
<path id="Rectangle 51" d="M17.875 3.91122C17.875 3.78423 17.9083 3.65945 17.9716 3.54936V3.54936C18.4935 2.64172 19.7753 2.56808 20.3977 3.40998L20.4745 3.51385C20.5723 3.64605 20.625 3.80611 20.625 3.97051V8.5H17.875V3.91122Z" fill="#F5D1D1" fill-opacity="0.79"/>
</g>
</g>
<defs>
<clipPath id="clip0_6_8">
<rect width="30" height="30" fill="white"/>
</clipPath>
</defs>
</svg>
