<svg width="280" height="83" viewBox="0 0 280 83" fill="none" xmlns="http://www.w3.org/2000/svg">
<g clip-path="url(#clip0_1_2)">
<mask id="mask0_1_2" style="mask-type:alpha" maskUnits="userSpaceOnUse" x="-2" y="-2" width="284" height="212">
<path d="M0 21.5174V203C0 205.761 2.23857 208 5 208H275C277.761 208 280 205.761 280 203V13.5H276.787H65.906C64.1984 13.5 62.6088 12.6285 61.6905 11.1887L56.0284 2.31128C55.1101 0.871528 53.5205 0 51.8128 0H21.8435C20.0054 0 18.3154 1.00858 17.4428 2.6264L11.3764 13.8736C10.5038 15.4914 8.8139 16.5 6.97575 16.5H5.01674C3.65874 16.5 2.35057 17.0613 1.40816 18.039C0.509997 18.9709 0 20.2231 0 21.5174Z" fill="#337E3A" stroke="#0C4A13" stroke-width="3"/>
</mask>
<g mask="url(#mask0_1_2)">
<path d="M0 12.5338V104C0 106.761 2.23858 109 5 109H276C278.761 109 281 106.761 281 104V12.3267C281 10.9789 280.456 9.68807 279.491 8.74703L279.232 8.49479C278.298 7.58419 277.046 7.07452 275.741 7.07452H65.1759C64.0212 7.07452 62.902 6.67483 62.0085 5.94333L56.1307 1.13119C55.2373 0.399689 54.1181 0 52.9634 0H20.9506C19.6525 0 18.4054 0.5048 17.4728 1.40767L11.4494 7.23897C10.5168 8.14183 9.26967 8.64663 7.97163 8.64663H3.8872C3.24055 8.64663 2.60412 8.80795 2.03556 9.11597C0.781314 9.79547 0 11.1073 0 12.5338Z" fill="#337E3A"/>
<rect x="259" y="32" width="23" height="2" fill="#D9D9D9"/>
<rect x="258" y="41" width="23" height="2" fill="#D9D9D9"/>
<rect x="258" y="49" width="23" height="2" fill="#D9D9D9"/>
<ellipse cx="254" cy="57.5" rx="7" ry="6.5" fill="#252525"/>
<ellipse cx="254.5" cy="58" rx="4.5" ry="4" fill="#D9D9D9"/>
<path d="M254 63L256.366 28.772C256.388 28.4412 256.444 28.1134 256.532 27.7936L268 -14L266.858 52.5708L266.858 52.5718L266.85 53.0571C266.845 53.3443 266.815 53.6276 266.763 53.9044C266.621 55.0088 266.33 55.96 265.94 56.5892C265.713 56.9564 265.338 57.193 264.954 57.3898L254 63Z" fill="#242020" fill-opacity="0.78"/>
<path d="M247 67L250.113 30.9105C250.143 30.5646 250.209 30.2228 250.309 29.8905L263 -12L261.798 51.7188L261.78 52.644C261.765 53.4552 261.553 54.24 261.175 54.9367C260.96 55.4221 260.699 55.8057 260.403 56.0475L259.945 56.4214L247 67Z" fill="url(#paint0_linear_1_2)"/>
<path d="M251.836 61L250.065 29.3719C250.022 28.6054 250.156 27.8393 250.457 27.133L266.7 -11L270.871 48.035C270.954 49.2145 270.617 50.3854 269.919 51.3397L264.349 58.9523C263.408 60.2393 261.909 61 260.314 61H251.836Z" fill="#242020" fill-opacity="0.3"/>
<circle cx="205.5" cy="25.5" r="6" fill="white" stroke="#BC9300" stroke-width="3"/>
<path d="M223.5 28L238 34" stroke="#0C4A13" stroke-width="3"/>
<path d="M237.5 36.5L227.788 44.3618C227.355 44.7128 227.292 45.3507 227.649 45.7792L239.5 60" stroke="#0C4A13"/>
<path d="M112.5 24.5H97C96.4477 24.5 96 24.9477 96 25.5V27C96 27.5523 96.4477 28 97 28H109.04C109.332 28 109.609 27.8724 109.799 27.6508L112.5 24.5Z" fill="#0C4A13"/>
<path d="M112.5 24.5H97C96.4477 24.5 96 24.9477 96 25.5V27C96 27.5523 96.4477 28 97 28H109.04C109.332 28 109.609 27.8724 109.799 27.6508L112.5 24.5ZM112.5 24.5V47.5M112.5 47.5V70.5M112.5 47.5H95C94.4477 47.5 94 47.9477 94 48.5V53C94 53.3148 94.1482 53.6111 94.4 53.8L100 58" stroke="#0C4A13" stroke-width="3"/>
<path d="M40.7929 70.2929L28.5 58V50.5V8.5C28.5 7.94772 28.9477 7.5 29.5 7.5H30.5C31.0523 7.5 31.5 7.94772 31.5 8.5V53.1972C31.5 53.3946 31.4416 53.5877 31.3321 53.7519L28.5 58L40.7929 70.2929C41.1834 70.6834 41.8166 70.6834 42.2071 70.2929L53.7929 58.7071C54.1834 58.3166 54.8166 58.3166 55.2071 58.7071L66.7929 70.2929C67.1834 70.6834 67.8166 70.6834 68.2071 70.2929L80.5 58L76.7526 53.7842C76.5899 53.6011 76.5 53.3647 76.5 53.1198V8.5C76.5 7.94772 76.9477 7.5 77.5 7.5H79.5C80.0523 7.5 80.5 7.94771 80.5 8.5V58L68.2071 70.2929C67.8166 70.6834 67.1834 70.6834 66.7929 70.2929L55.2071 58.7071C54.8166 58.3166 54.1834 58.3166 53.7929 58.7071L42.2071 70.2929C41.8166 70.6834 41.1834 70.6834 40.7929 70.2929Z" fill="#0C4A13"/>
<path d="M28.5 58L40.7929 70.2929C41.1834 70.6834 41.8166 70.6834 42.2071 70.2929L53.7929 58.7071C54.1834 58.3166 54.8166 58.3166 55.2071 58.7071L66.7929 70.2929C67.1834 70.6834 67.8166 70.6834 68.2071 70.2929L80.5 58M28.5 58L31.3321 53.7519C31.4416 53.5877 31.5 53.3946 31.5 53.1972V8.5C31.5 7.94772 31.0523 7.5 30.5 7.5H29.5C28.9477 7.5 28.5 7.94772 28.5 8.5V50.5V58ZM80.5 58V8.5C80.5 7.94771 80.0523 7.5 79.5 7.5H77.5C76.9477 7.5 76.5 7.94772 76.5 8.5V53.1198C76.5 53.3647 76.5899 53.6011 76.7526 53.7842L80.5 58Z" stroke="#0C4A13" stroke-width="3"/>
<circle cx="54" cy="59" r="2" fill="white" stroke="#0C4A13" stroke-width="2"/>
<circle cx="79" cy="53" r="2" fill="white" stroke="#0C4A13" stroke-width="2"/>
<circle cx="95" cy="47" r="2" fill="white" stroke="#0C4A13" stroke-width="2"/>
<circle cx="225" cy="27" r="2" fill="white" stroke="#0C4A13" stroke-width="2"/>
<circle cx="240" cy="35" r="2" fill="white" stroke="#0C4A13" stroke-width="2"/>
<circle cx="225" cy="44" r="2" fill="white" stroke="#0C4A13" stroke-width="2"/>
<circle cx="241" cy="62" r="2" fill="white" stroke="#0C4A13" stroke-width="2"/>
<circle cx="225" cy="62" r="2" fill="white" stroke="#0C4A13" stroke-width="2"/>
<rect x="-13" y="7" width="14" height="90" fill="#0C4A13"/>
<rect x="-13" y="7" width="14" height="90" fill="#0C4A13"/>
<rect x="-13" y="7" width="14" height="90" fill="#0C4A13"/>
<circle cx="113" cy="71" r="2" fill="white" stroke="#0C4A13" stroke-width="2"/>
<circle cx="105" cy="62" r="3.5" fill="white" stroke="#BC9300" stroke-width="3"/>
<circle cx="30" cy="10" r="2" fill="white" stroke="#0C4A13" stroke-width="2"/>
<path d="M114 69.4053L120.676 74.3334C121.536 74.9681 122.577 75.3106 123.646 75.3106L151.755 75.3106C153.183 75.3106 154.543 74.7 155.492 73.6327L157.987 70.8262C158.801 69.9109 159.25 68.7288 159.25 67.5041L159.25 30.5001" stroke="#0C4A13"/>
<path d="M78 27.5L98.5 27.5" stroke="#0C4A13"/>
<rect x="97" y="23" width="3" height="5" fill="#BC9300"/>
<rect x="102" y="23" width="3" height="5" fill="#BC9300"/>
<rect x="107" y="23" width="3" height="5" fill="#BC9300"/>
<rect x="120" y="22" width="25" height="48" fill="#0C4A13"/>
<path d="M124 63H140C140.552 63 141 62.5523 141 62V47C141 46.4477 140.552 46 140 46H125C124.448 46 124 45.5523 124 45V30.5C124 29.9477 124.448 29.5 125 29.5H141" stroke="#337E3A" stroke-width="3"/>
<rect x="122" y="60" width="14" height="5" rx="2.5" fill="#585858"/>
<path d="M122 61C122 59.8954 122.895 59 124 59H133C134.105 59 135 59.8954 135 61C135 62.1046 134.105 63 133 63H124C122.895 63 122 62.1046 122 61Z" fill="#D9D9D9"/>
<rect x="128" y="28" width="14" height="5" rx="2.5" fill="#585858"/>
<path d="M128 29C128 27.8954 128.895 27 130 27H139C140.105 27 141 27.8954 141 29C141 30.1046 140.105 31 139 31H130C128.895 31 128 30.1046 128 29Z" fill="#D9D9D9"/>
<rect width="1" height="11" transform="matrix(-1 0 0 1 155 25)" fill="#D9D9D9"/>
<rect width="1" height="11" transform="matrix(-1 0 0 1 157 25)" fill="#D9D9D9"/>
<rect width="1" height="11" transform="matrix(-1 0 0 1 159 25)" fill="#D9D9D9"/>
<rect width="1" height="11" transform="matrix(-1 0 0 1 161 25)" fill="#D9D9D9"/>
<rect width="1" height="11" transform="matrix(-1 0 0 1 163 25)" fill="#D9D9D9"/>
<rect width="1" height="11" transform="matrix(-1 0 0 1 165 25)" fill="#D9D9D9"/>
<rect width="1" height="11" transform="matrix(-1 0 0 1 167 25)" fill="#D9D9D9"/>
<rect x="152" y="26" width="17" height="9" fill="#2D2D2D"/>
<rect width="1" height="11" transform="matrix(-1 0 0 1 155 53)" fill="#D9D9D9"/>
<rect width="1" height="11" transform="matrix(-1 0 0 1 157 53)" fill="#D9D9D9"/>
<rect width="1" height="11" transform="matrix(-1 0 0 1 159 53)" fill="#D9D9D9"/>
<rect width="1" height="11" transform="matrix(-1 0 0 1 161 53)" fill="#D9D9D9"/>
<rect width="1" height="11" transform="matrix(-1 0 0 1 163 53)" fill="#D9D9D9"/>
<rect width="1" height="11" transform="matrix(-1 0 0 1 165 53)" fill="#D9D9D9"/>
<rect width="1" height="11" transform="matrix(-1 0 0 1 167 53)" fill="#D9D9D9"/>
<rect x="152" y="54" width="17" height="9" fill="#2D2D2D"/>
<rect width="1" height="11" transform="matrix(-1 0 0 1 155 39)" fill="#D9D9D9"/>
<rect width="1" height="11" transform="matrix(-1 0 0 1 157 39)" fill="#D9D9D9"/>
<rect width="1" height="11" transform="matrix(-1 0 0 1 159 39)" fill="#D9D9D9"/>
<rect width="1" height="11" transform="matrix(-1 0 0 1 161 39)" fill="#D9D9D9"/>
<rect width="1" height="11" transform="matrix(-1 0 0 1 163 39)" fill="#D9D9D9"/>
<rect width="1" height="11" transform="matrix(-1 0 0 1 165 39)" fill="#D9D9D9"/>
<rect width="1" height="11" transform="matrix(-1 0 0 1 167 39)" fill="#D9D9D9"/>
<rect x="152" y="40" width="17" height="9" fill="#2D2D2D"/>
<rect x="177" y="19" width="3" height="47" fill="#262626"/>
<rect x="178" y="19" width="3" height="47" fill="#101010"/>
<rect x="178" y="21" width="2" height="2" fill="#B5B4B4"/>
<rect x="178" y="26" width="2" height="2" fill="#B5B4B4"/>
<rect x="178" y="31" width="2" height="2" fill="#B5B4B4"/>
<rect x="178" y="36" width="2" height="2" fill="#B5B4B4"/>
<rect x="178" y="41" width="2" height="2" fill="#B5B4B4"/>
<rect x="178" y="46" width="2" height="2" fill="#B5B4B4"/>
<rect x="178" y="51" width="2" height="2" fill="#B5B4B4"/>
<rect x="178" y="56" width="2" height="2" fill="#B5B4B4"/>
<rect x="178" y="61" width="2" height="2" fill="#B5B4B4"/>
<rect x="182" y="36" width="8" height="3" fill="#9C9C9C"/>
<path d="M183 36H189V39H183V36Z" fill="#CFCFCF"/>
<path d="M183 39H189V38H183V39Z" fill="#B1B1B1"/>
<rect x="184" y="36" width="3" height="3" fill="#C6CC82"/>
<rect width="3" height="1" transform="matrix(1 0 0 -1 184 39)" fill="#989D60"/>
<rect x="182" y="21" width="8" height="3" fill="#9C9C9C"/>
<path d="M183 21H189V24H183V21Z" fill="#CFCFCF"/>
<path d="M183 24H189V23H183V24Z" fill="#B1B1B1"/>
<rect x="184" y="21" width="3" height="3" fill="#C6CC82"/>
<rect width="3" height="1" transform="matrix(1 0 0 -1 184 24)" fill="#989D60"/>
<rect x="204" y="48" width="1" height="17" fill="#D9D9D9"/>
<rect x="208" y="48" width="1" height="17" fill="#D9D9D9"/>
<rect x="208" y="56" width="2" height="3" fill="#D9D9D9"/>
<rect x="204" y="48" width="4" height="3" fill="#D9D9D9"/>
<path d="M202 45.9406C202 45.3383 202.239 44.7608 202.665 44.3349C204.285 42.7154 206.857 42.5552 208.665 43.9614L209.024 44.2408C209.64 44.7198 210 45.4564 210 46.2366V53H202V45.9406Z" fill="#940101" fill-opacity="0.79"/>
<path d="M204 45.1747C204 44.835 204.107 44.5038 204.305 44.2278C205.503 42.5606 207.929 42.4115 209.323 43.9194L209.535 44.1492C209.834 44.4726 210 44.8967 210 45.337V53H204V45.1747Z" fill="#C20808" fill-opacity="0.79"/>
<path d="M207 45.6627C207 45.5703 207.024 45.4796 207.07 45.3995C207.45 44.7394 208.382 44.6859 208.835 45.2982L208.891 45.3737C208.962 45.4699 209 45.5863 209 45.7058V49H207V45.6627Z" fill="#F5D1D1" fill-opacity="0.79"/>
<path d="M226.5 32C226.5 35.866 225.828 42 225 42C224.172 42 223.5 36.366 223.5 32.5C223.5 28.634 224.172 28 225 28C225.828 28 226.5 28.134 226.5 32Z" fill="#012458"/>
<path d="M226.5 32C226.5 35.866 225.828 42 225 42C224.172 42 223.5 36.366 223.5 32.5C223.5 28.634 224.172 28 225 28C225.828 28 226.5 28.134 226.5 32Z" fill="#0B47A0" fill-opacity="0.74"/>
<path d="M226 35C226 38.866 225.552 42 225 42C224.448 42 224 38.866 224 35C224 31.134 224.448 28 225 28C225.552 28 226 31.134 226 35Z" fill="#136AED" fill-opacity="0.58"/>
<path d="M226 35C226 38.866 225.552 42 225 42C224.448 42 224 38.866 224 35C224 31.134 224.448 28 225 28C225.552 28 226 31.134 226 35Z" fill="#0B47A0" fill-opacity="0.74"/>
<path d="M226.5 50C226.5 53.866 225.828 60 225 60C224.172 60 223.5 54.366 223.5 50.5C223.5 46.634 224.172 46 225 46C225.828 46 226.5 46.134 226.5 50Z" fill="#012458"/>
<path d="M226.5 50C226.5 53.866 225.828 60 225 60C224.172 60 223.5 54.366 223.5 50.5C223.5 46.634 224.172 46 225 46C225.828 46 226.5 46.134 226.5 50Z" fill="#0B47A0" fill-opacity="0.74"/>
<path d="M226 53C226 56.866 225.552 60 225 60C224.448 60 224 56.866 224 53C224 49.134 224.448 46 225 46C225.552 46 226 49.134 226 53Z" fill="#136AED" fill-opacity="0.58"/>
<path d="M226 53C226 56.866 225.552 60 225 60C224.448 60 224 56.866 224 53C224 49.134 224.448 46 225 46C225.552 46 226 49.134 226 53Z" fill="#0B47A0" fill-opacity="0.74"/>
<path d="M251.035 55.0875L255.5 57.5M255.5 57.5L252.051 61.5075M255.5 57.5L258.887 59.9186M255.5 57.5L256.961 54.1489" stroke="black"/>
<path d="M47.5 13L39 0L285 0V13L47.5 13Z" fill="#0C4A13"/>
<path d="M47.5 13L39 0L285 0V13L47.5 13Z" fill="#0C4A13"/>
<path d="M47.5 13L39 0L285 0V13L47.5 13Z" fill="#0C4A13"/>
</g>
</g>
<defs>
<linearGradient id="paint0_linear_1_2" x1="255" y1="-12" x2="255" y2="67" gradientUnits="userSpaceOnUse">
<stop stop-color="#280D0D"/>
<stop offset="0.348958" stop-color="#280D0D" stop-opacity="0.651042"/>
<stop offset="0.494792" stop-color="#280D0D" stop-opacity="0.505208"/>
<stop offset="1" stop-color="#280D0D" stop-opacity="0"/>
</linearGradient>
<clipPath id="clip0_1_2">
<rect width="280" height="83" fill="white"/>
</clipPath>
</defs>
</svg>
